<?xml version="1.0" encoding="utf-8"?><svg viewBox="0 0 577 427" xmlns="http://www.w3.org/2000/svg" xmlns:xlink="http://www.w3.org/1999/xlink"><style>:root>svg{display:none}:root>svg:target{display:block}</style><svg viewBox="0 0 304 362" id="icon-avocado" xmlns="http://www.w3.org/2000/svg"><path d="M190.985 127.81s21.072 9.839 16.456 56.949c-4.615 47.11-59.233 136.228-66.155 145.139-6.923 8.91-34.232 35.222-70.008 30.551-35.776-4.671-54.202-28.896-54.202-28.896m10.757-107.198c-8.605-9.437-41.761-51.216-1.18-95.617 46.16-50.507 85.935 12.338 85.935 12.338m21.428-15.21c-.078-10.298 2.038-30.752 18.486-41.625m0 0c.477-.316.963-.622 1.466-.919 24.239-14.424 49.24-2.115 58.852 5.944 9.621 8.068 15.39 15.467 18.851 19.832 3.461 4.364 18.46 34.064 23.848 40.429 5.378 6.365 40.382 36.926 46.151 68.75 5.769 31.834-8.84 48.383-13.073 57.294-4.234 8.911-20.768 28.436-38.466 37.768-17.697 9.342-46.541 9.342-66.156 0-11.216-5.331-18.165-12.194-22.06-17.094m-9.413-212.004C134.267 46.185 147.427 1 147.427 1m-2.012 34.38s19.71-22.071 53.941-16.128c34.232 5.944 47.071 31.404 47.071 31.404s-13.429-2.967-37.554 10.184c-24.125 13.15-46.516-.422-51.096-2.968-4.572-2.545-11.477-11.916-9.369-15.505 2.108-3.59 14.027-11.227 37.103-8.681 23.076 2.546 38.847 12.309 38.847 12.309m-58.852-8.5s4.234 7.638 17.307 11.457c13.073 3.819 21.54 2.967 21.54 2.967m-18.842-18.242s10.384-8.49 18.851-7.638m-19.241 95.913c17.636 14.089 15.389 37.348 11.537 52.623-3.851 15.276-28.462 68.329-35.003 81.902-6.541 13.581-36.54 59.408-44.235 67.056-7.694 7.638-42.698 47.109-87.314 18.673-44.616-28.436-25.374-78.513-22.685-87.424 2.689-8.91 27.69-40.314 38.847-52.622 11.156-12.309 56.544-53.475 70.007-64.08 13.464-10.605 46.542-33.959 68.846-16.128Zm-75.005 89.118c10.384 8.911 29.617 28.437 10.002 62.807-19.614 34.37-50.003 18.252-58.08 12.73-8.076-5.523-35.003-33.528 0-68.751 21.107-21.238 48.078-6.786 48.078-6.786Z"/></svg><svg viewBox="0 0 457 390" id="icon-blueberry" xmlns="http://www.w3.org/2000/svg"><path d="M387.057 41.86C423.683 19.6 455.673.971 455.673.971M146.227 238.338c-6.648 7.751-12.942 15.497-18.778 23.167m127.256-63.534s-.005-.028-.026-.091c-.287-1.209-3.191-13.968-1.584-31.926 1.136-12.703 4.523-28.005 12.7-43.647l-.002-.01.009-.002-.001-.009.008-.002-.001-.009m-.585.012.001.01.009-.002m1.077 4.075s-5.684 29.341 30.931 40.679m-43.717-1.207c-14.455 7.854-20.582 20.095-22.288 24.142m-54.459 88.933c10.374 3.211 24.331 3.145 42.897-4.261m20.272-70.635c-1.309-3.867-3.716-9.325-7.942-14.346-5.441-6.459-13.894-12.187-26.888-12.853-6.155-.321-13.333.497-21.7 2.914-37.212 10.752-40.243 40.919-37.92 59.114.85 6.614 2.401 11.645 3.281 13.594 1.015 2.254 3.344 7.173 7.606 12.243m-70.567 29.891c-9.067 16.005-13.826 37.969-4.7 60.114 13.747 33.383 41.974 39.059 71.189 29.755 29.214-9.305 44.531-47.126 40.782-69.519-1.986-11.884-6.483-26.033-15.389-36.562-5.014-5.94-11.443-10.724-19.613-13.313-4.645-1.475-9.863-2.228-15.705-2.086-5.995.149-11.132.63-15.539 1.329m-44.836 88.772c-18.476 22.768-42.549 20.003-58.036 6.987-4.424-3.719-8.158-8.284-10.844-13.324a53.114 53.114 0 0 1-5.783-18.002c-2.33-17.155 3.67-33.679 11.647-42.823 7.665-8.791 21.465-11.821 28.784-12.842m-34.876 56.865s-9.472-5.177-11.358 2.612c-1.887 7.79 6.825 10.956 9.195 18.592 2.37 7.637.458 17.988 4.725 20.029 4.265 2.031 10.243-1.015 9.232-11.364M369.324 52.193s-21.406 12.567-14.819 49.926c6.588 37.369 32.463 46.74 32.463 46.74 18.89-26.835 16.8-55.887 13.243-79.473-1.942-12.923-8.151-22.16-14.039-26.583m0 0a19.718 19.718 0 0 0-2.264-1.477c-3.983-2.19-6.357-.83-9.059.99-7.505 5.053-1.893 11.318 7.202 7.433 1.898-.805 4.165-3.49 4.121-6.946Zm0 0c.006-.842-.09-1.747-.284-2.696-1.465-7.328-8.782-17.582-28.4-26.997C324.96-2.497 284.813 2.268 284.813 2.268s21.22 30.902 40.125 49.344m0 0c13.299-3.28 24.311-2.906 28.702-2.48 9.247.897 10.94 10.5-5.722 15.628-5.399 1.66-13.92-4.319-22.98-13.148Zm0 0c-14.731 3.631-32.276 11.754-46.747 29.257 0 0 34.188 5.907 58.588-8.789-14.203 9.312-39.954 25.227-48.753 31.93-7.041 5.361-15.129 11.756-23.935 18.982l.002.009-.009.002-.009.002.002.009m-42.849 37.866a1095.198 1095.198 0 0 0-16.795 15.557m48.992-39.785s-17.851 18.873-46.164 28.568c-28.312 9.695-64.183 9.031-64.183 9.031s-.736-19.031 33.828-49.456c34.565-30.425 69.729-12.875 75.816-7.866 6.078 5.011 5.031 10.267-5.924 12.013-10.955 1.746-42.869-29.775-50.423-51.611-8.219-23.756-8.695-49.309-8.695-49.309s33.507 15.425 59.816 43.745c26.31 28.32 15.262 47.389 15.262 47.389l-.01-.008m-56.888-16.87s-23.717-9.375-32.559-7.276c0 0-28.954-63.738-109.738-10.67 0 0 16.642 28.248 52.224 27.699 35.583-.55 48.997-17.535 48.997-17.535s-67.096-1.554-72.85-9.873m149.344 15.383s-22.525-31.397-26.167-35.484c-2.286-2.56-13.507.387-5.435 12.2 8.994 13.16 25.794 7.996 25.794 7.996m-3.298 43.45s-54.653 10.993-65.242 27.384m23.603-30.954s22.513.426 32.823 12.2m78.335-68.564s12.927 2.96 24.486.564l11.559-2.396m23.125-19.366s-22.358-29.677-43.003-28.654m61.672 44.25s-5.126 26.516-.839 46.087c4.288 19.57-6.896 16.519-9.098 4.081-2.203-12.439 11.858-20.868 11.858-20.868m-12.739-27.877s11.73 4.587 15.034 14.117m-101.92 119.3s4.64-32.013 42.138-39.998c32.257-6.863 48.874 33.057 43.649 50.871-3.112 10.618-12.642 36.25-53.764 38.901M103.1 77.973s21.582 2.346 29.056 18.999M349.06 26.385s-16.145 9.869-29.138 2.834m-61.886 169.17c-5.867.833-13.306 4.102-18.184 7.291-21.836 15.424-31.573 43.787-20.864 69.796 2.926 7.099 8.219 16.476 14.747 20.94 37.576 25.703 72.986-10.251 76.018-21.386 1.32-4.847 6.173-17.462 3.973-35.356 0 0-2.879-21.643-19.992-33.868-16.72-11.96-35.698-7.417-35.698-7.417Zm-130.209 62.136s-.528.719-1.514 1.939c-21.296 4.913-25.183 11.284-25.183 11.284-5.553 4.298-11.241 10.873-15.83 18.987-5.617 1.257-11.395 1.135-17.055-1.155-10.322-4.174-17.213-11.018-21.764-18.469-7.924-12.959-9.055-23.599-8.243-33.589 1.045-12.897 10.65-21.908 10.65-21.908 13.45-16.346 44.348-26.683 65.091-8.383 20.732 18.293 13.848 51.294 13.848 51.294Zm-70.109-18.402c2.851-2.153 2.615-18.352 10.618-15.279 8.004 3.073 8.714 15.101 5.636 17.095-3.08 1.993-9.611 4.995-10.467 2.414-.855-2.58.988-4.722 2.204-3.498 1.224 1.212 3.61 18.198-.596 20.664-4.206 2.465-14.318-7.973-11.29-9.125 3.026-1.151 3.555-.425 3.882 1.429.327 1.854-6.463 10.259-11.184 4.076-4.72-6.184-.282-15.33 3.616-14.947 3.914.37 7.581-2.829 7.581-2.829Zm202.905 25.494c2.383-.587 1.209-15.357 8.714-13.858 7.506 1.498 8.965 12.024 7.271 14.969-1.694 2.945-5.809 2.404-5.119-.521.691-2.925 18.562-11.94 20.152-4.219 1.59 7.72-3.73 17.464-10.165 17.458-6.434-.007-7.742-3.97-10.492-2.482-2.75 1.488 3.128 15.04-6.714 14.752-9.841-.288-10.641-17.352-8.076-17.626 2.567-.265 3.87.28 4.112 2.779.241 2.499-3.687 8.725-13.02 2.576-9.336-6.157-2.662-16.203 2.013-17.069 4.664-.872 5.056 4.79 11.324 3.241Zm-134.357 78.499c2.42.143 5.214-14.49 11.953-10.792 6.738 3.697 5.348 14.312 2.958 16.647-2.388 2.344-6.164.585-4.731-2.038 1.432-2.623 20.8-5.988 20.271 1.954-.529 7.942-8.161 15.772-14.279 13.842-6.12-1.94-6.312-6.156-9.323-5.54-3.011.616-1.003 15.478-10.28 12.25-9.277-3.228-5.532-19.971-3.021-19.464 2.511.506 3.609 1.433 3.178 3.922-.431 2.488-5.815 7.335-13.064-1.407s1.753-16.466 6.424-15.9c4.67.556 3.555 6.157 9.914 6.526Zm204.568-142.783c6.835.475.412 9.293 5.285 10.846 3.416 1.08 7.836 3.315 6.602 8.886-.983 4.425-12.585 11.028-18.41-.454-3.007-5.921 6.19-4.576 5.928-1.79-.227 2.373-3.832 10.271-8.337 9.818-4.514-.452-8.871-3.77-6.948-9.712 1.306-4.037 6.106-2.939 6.948-9.863.728-6.022 3.081-8.134 8.932-7.731ZM159.8 218.909c3.673-3.482 6.578 7.55 8.434 7.557 2.861-.001 3.838-9.593 8-.605 4.163 8.988-2.628 14.119-4.771 11.708-2.144-2.412-.067-4.16.685-3.626.761.531 5.748 12.381.839 17.969-4.908 5.598-13.282-10.324-11.113-10.824 2.169-.5 5.528.662 2.608 3.176-2.92 2.514-8.058 1.733-8.362-6.625-.304-8.357 4.538-3.032 5.162-6.334.625-3.302-6.04-8.08-1.482-12.396Z"/></svg><svg viewBox="0 0 128 128" id="icon-carrot" xmlns="http://www.w3.org/2000/svg"><path d="M91.5 12.624 87 19.248s2.452 1.908 3.624 4.628c1.016 2.388 1.752 5.188-2.124 9.872L85 37.252C73.22 27.22 61.248 26.748 61.248 26.748H59l-1.252 2s-10.2 17.344-20 35.252c-4.9 8.952-9.748 18.064-13.116 25.252-1.692 3.592-3.02 6.72-3.88 9.248-.42 1.264-.72 2.328-.872 3.5-.16 1.172-.596 2.78 1.372 4.752 1.972 1.968 3.58 1.528 4.752 1.372 1.172-.156 2.236-.452 3.5-.872 2.532-.86 5.656-2.188 9.252-3.88C45.932 100 55.044 95.16 64 90.256c17.892-9.816 35.252-20 35.252-20l2-1.252v-2.376s-.532-11.828-10.5-23.624l1.372-1.5c.344-.344.656-.58 1-.876l1-.876c4.72-3.624 9.188-3.48 13.128-2.496a23.117 23.117 0 0 1 7.624 3.496l5-6.248s-4.44-3.42-10.752-5a25.279 25.279 0 0 0-4.248-.624L113 20.752l-5.752-5.748-8.372 8.376A14.888 14.888 0 0 0 98 20.628c-2.252-5.248-6.5-8-6.5-8v-.004ZM63.248 35.248c2.628.252 10.144 1.344 19.128 10.376 9 9.064 10.108 16.52 10.372 19.124-.656.392-4.076 2.456-6.748 4a46.574 46.574 0 0 0-5.252-8.872l-6.372 4.876c2.812 3.748 3.968 6.328 4.624 8-6.265 3.55-12.557 7.05-18.876 10.5-.388.2-.732.42-1.124.624-.736-2.188-1.936-4.828-4.124-7.876l-6.5 4.624c1.968 2.752 2.936 5.016 3.376 6.5.076.252.076.312.12.5-5.98 3.204-11.76 6.28-16.496 8.5-2.468 1.16-4.22 1.8-6 2.5.704-1.78 1.344-3.532 2.5-6 3.232-6.888 8.016-15.872 12.872-24.748A978.828 978.828 0 0 1 51 56.624c1.28 1.124 2.936 2.64 4.752 5L62 56.748a41.292 41.292 0 0 0-7-7.248c4.188-7.344 7.532-13.016 8.252-14.252h-.004Z"/></svg><svg viewBox="0 0 128 128" id="icon-fish" xmlns="http://www.w3.org/2000/svg"><path d="m42 22 2.252 5.5c1.404 3.42 3.312 11.968 2.872 16-5.452 3.36-8.796 6.64-11.376 9.376C32.596 50.328 26.36 46 16 46h-4v4c0 7.656 2.764 13.876 3.752 16-1 2.108-3.752 8.108-3.752 16v4h4c10.28 0 16.592-4.344 19.752-6.876C40.484 84 47.232 89.14 55.752 93c-.376 2.484-.672 5.952.372 10l.752 3H60c4.936 0 9.188-2.452 12.624-4.624 2.812-1.784 4.172-3.032 4.876-3.628 15.908-.56 26.064-9.14 31.5-17.624 5.624-8.764 7-17.5 7-17.5l.124-1-.372-1s-9.16-25.156-34-26.376c-2.64-3.2-6.332-5.856-11.5-8C64.14 23.72 56.452 22 48 22h-6Zm11.624 8.5c5.048.56 9.768 1.58 13.5 3.124 5.112 2.112 8.672 5.14 9.5 6.5L77.752 42H80c19.984 0 27.172 18.92 27.752 20.5-.28 1.468-1.44 7.048-5.5 13.376C97.608 83.108 90.092 90 76 90h-1.5l-1.124 1s-2.112 1.8-5 3.624c-1.52.956-2.812 1.128-4.376 1.752.16-1.828 0-4.5 0-4.5l.876-3.5-3.252-1.128C51.72 83.468 43.296 76.344 39 71.376l-2.752-3.252-3 3S27.92 74.86 21 76.624c1.032-4.688 2.624-8.872 2.624-8.872L24.5 66l-.876-1.752s-1.732-4.592-2.748-9.5c7.372 1.628 12.372 6.128 12.372 6.128l3 3L39 60.624c3.58-4.044 13.22-14.124 27.376-16l-1.128-7.876c-3.828.504-7.168 1.612-10.372 2.88-.204-3.36-.376-6.252-1.252-9.128ZM90 58a6 6 0 1 0 0 12 6 6 0 0 0 0-12Z"/></svg><svg viewBox="0 0 330 287" id="icon-leaf" xmlns="http://www.w3.org/2000/svg"><path d="M111.383 100.799c-9.786-13.213-22.519-41.288-14.342-59.335C112.21 7.987 166.004-5.209 183.991 5.22c-4.252.363-17.65 5.53-31.624 14.312-12.703 7.983-17.951 29.004-1.571 15.3 5.734-4.798 22.279-17.355 33.186-19.92 22.089-5.192 43.387-1.62 57.541 11.815-9.9-.306-28.888-.13-49.323 7.206-25.544 9.17-35.008 21.042-34.474 22.282.534 1.239-.206-.206 23.208-9.683 37.327-15.109 82.875-14.885 108.35 22.084-25.126-16.745-47.192-12.908-77.532-8.475-14.886 2.175-41.521 12.727-38.439 15.685 3.083 2.958 6.756.885 18.587-2.131 11.83-3.016 36.209-4.578 51.21-3.328 33.051 2.756 66.823 2.405 83.113 58.19-27.674-27.797-66.764-30.95-100.449-32.254-7.138-.276-51.376 2.213-49.469 13.624 1.146 6.854 21.514 2.082 27.245 1.694 5.732-.388 32.256-2.72 39.832-2.801 7.577-.081 23.899-.624 43.833 8.542 19.935 9.166 29.75 21.346 32.725 25.82 2.974 4.474 8.519 19.106 8.138 29.924-.305 8.655-.154 17.823-.04 21.325-4.337-6.826-16.213-22.241-34.455-33.484-22.802-14.053-41.118-18.836-49.853-20.338-8.735-1.502-22.446-1.816-22.707 3.318-.262 5.133 13.585 12.219 20.42 15.274 6.836 3.055 22.932 9.863 28.876 13.057 5.943 3.194 22.43 14.689 32.978 24.594 10.548 9.904 12.854 18.568 14.058 32.621.963 11.243-8.043 35.413-11.106 39.713 2.096-6.618-.279-16.698-8.615-26.824M111.383 100.799l-8.878-.95m8.878.95c1.162-6.501.362-29.55 3.999-41.6 4.547-15.063 10.405-22.855 17.336-30.618M111.383 100.8c3.272-6.757 12.484-23.136 23.152-34.59 13.335-14.32 29.486-27.402 38.466-33.72m-61.618 68.31c2.118.575 4.938 1.511 8.361 2.844m-8.361-2.844c-32.221 5.257-73.49 49.568-65.874 82.478m252.125 59.085c-30.247-11.889-9.745 10.842-23.167 9.844-10.801-.802-22.329-4.188-41.418-25.965-11.607-13.241-26.557-53.198-32.213-43.49-6.476 11.114 1.84 35.546 17.324 56.338 19.062 25.596 46.428 30.173 48.834 31.341-3.764-.052-30.447 13.238-44.083 10.932-10.208-1.727-27.942-5.994-42.653-29.535-14.711-23.54-17.181-55.132-17.782-63.813-.48-6.944 2.019-26.3 3.329-35.11-.226-4.352-2.216-11.193-8.368-3.742-7.689 9.314-4.595 51.087-.515 70.27 4.656 21.892 20.951 51.225 39.748 65.764-7.068-1.241-28.632-2.321-42.22-8.417-16.985-7.621-27.809-15.148-34.243-34.051-6.433-18.903-8.195-34.927-7.705-49.466.491-14.539 5.244-32.874 7.28-38.527 1.629-4.522 7.542-16.079 9.379-21.606-14.303 3.879-20.831 23.604-23.518 36.702-2.084 10.157-5.104 26.104-4.922 34.475.336 15.448 2.118 53.031 22.253 60.63-18.09-3.753-40.744-23.157-48.697-38.841-8.868-17.486-6.581-37.894-4.598-44.994 1.983-7.1 11.554-31.919 16.961-40.127 4.325-6.567 7.787-12.989 8.977-15.38 1.186-2.103 2.273-5.632-2.878-2.923-5.15 2.709-12.112 11.709-14.949 15.871-2.213 3.77-7.044 12.269-8.665 16.102-2.026 4.792-8.063 21.476-8.976 27.747-.913 6.272-1.935 16.264-.469 24.082 1.173 6.254 4.208 13.004 5.58 15.597-14.627-3.721-36.383-23.449-38.485-49.763-2.025-25.329 15.486-41.753 31.344-56.803 2.01-1.519 5.966-7.132-2.685-5.658-21.143 3.604-37.257 30.791-40.902 49.789-4.12-2.715-12.45-20.675-12.886-31.753-.63-16.046 7.294-30.434 21.02-38.214m274.968 152.694c-8.007-6.51-32.684-26.732-39.519-32.702-7.309-6.384-26.897-16.291-46.966-46.033M102.505 99.849c-7.038-6.397-14.558-11.483-20.707-14.712-6.148-3.228-18.581-5.585-33.53-4.286-8.24.716-17.964 4.489-25.601 8.817m79.838 10.18c-12.58-.415-72.585-4.047-83.61 18.53m83.61-18.53c-15.518-4.73-49.18-14.147-59.678-13.959-10.5.189-17.815 2.598-20.16 3.78m107.117 18.285c-5.797 5.021-18.854 18.291-24.709 31.199-7.32 16.134-18.416 43.816-20.39 63.525-1.578 15.767.971 25.951 2.443 29.072m42.656-123.796a172.837 172.837 0 0 0-10.04-4.311m10.04 4.311a231.302 231.302 0 0 1 8.866 4.362m12.573 6.95c-3.632 3.647-11.515 17.943-13.985 45.948-3.088 35.007-.541 52.4 3.79 69.515 3.464 13.692 7.999 23.127 9.833 26.132m.362-141.595a273.756 273.756 0 0 0-12.573-6.95m12.573 6.95a314.5 314.5 0 0 1 18.598 11.825m12.69 9.134a355.441 355.441 0 0 1 10.35 8.122 935.307 935.307 0 0 1 18.288 15.28m-28.638-23.402c-1.734 6.574-2.125 24.814.649 48.962 3.539 30.803 6.314 35.381 14.69 56.476 5.244 13.208 14.077 19.904 18.415 22.084m-33.754-127.522a340.75 340.75 0 0 0-12.69-9.134m-50.077-27.448c9.181-9.534 31.056-30.116 45.115-36.175 17.574-7.573 27.052-12.514 41.29-15.465m-67.499 60.313c2.984-4.674 15.464-15.334 41.517-20.585 32.566-6.563 49.646-7.555 77.598-5.396 22.362 1.728 33.178 8.399 35.791 11.518m-123.735 33.238c7.673-1.551 30.451-4.893 60.181-5.851 29.729-.957 61.593 16.196 73.808 24.892m-92.661 13.495c15.448 5.012 56.295 27.073 66.423 35.738 10.128 8.666 19.72 19.709 23.25 24.147"/></svg><svg viewBox="0 0 128 128" id="icon-lemon" xmlns="http://www.w3.org/2000/svg"><path d="M48 16c-10.328 0-19.516 5.752-25.876 14.5C15.764 39.252 12 51.06 12 64c0 12.936 3.764 24.752 10.124 33.5C28.484 106.252 37.672 112 48 112c32.92 0 50.468-18.828 54.752-38.624C105.76 71.2 108 67.984 108 64c0-3.984-2.236-7.2-5.252-9.376C98.24 34.328 77.252 16 48 16Zm0 8c7.344 0 14.16 4.064 19.376 11.252C72.592 42.432 76 52.64 76 64s-3.408 21.56-8.624 28.752C62.156 99.932 55.344 104 48 104c-7.344 0-14.16-4.064-19.376-11.252C23.408 85.568 20 75.36 20 64s3.408-21.56 8.624-28.752C33.844 28.064 40.656 24 48 24Zm25.5 6.124c12.16 6.44 19.968 17.032 21.876 27.376l.372 2 1.88.876C99.016 61.016 100 62.36 100 64c0 1.64-.984 2.984-2.376 3.624l-1.872.876-.376 2c-2.128 11.58-9.112 22.936-23.128 29 .548-.656 1.112-1.296 1.628-2C80.236 88.748 84 76.94 84 64c0-12.936-3.764-24.752-10.124-33.5-.112-.14-.268-.236-.376-.376ZM48 32c-2.86 0-5.548 1.032-8 2.752l8.124 19.12 8.252-19C53.84 33.02 50.968 32 48 32Zm-14 9.124c-3.14 4.92-5.296 11.52-5.876 18.876H42l-8-18.876Zm28.252.376L54.12 60h13.752c-.56-7.188-2.596-13.608-5.628-18.5h.008ZM28.12 68c.56 7.188 2.596 13.608 5.624 18.5L41.88 68H28.12Zm25.876 0 8 18.876c3.14-4.92 5.296-11.52 5.876-18.876H53.996Zm-6.124 6.124-8.252 19C42.152 94.984 45.028 96 47.996 96c2.86 0 5.548-1.032 8-2.752l-8.124-19.124Z"/></svg><svg viewBox="0 0 577 393" id="icon-mint" xmlns="http://www.w3.org/2000/svg"><path d="M296.326 200.755s-.998-37.68 23.84-49.889c24.839-12.209 28.816-11.108 28.816-11.108s4.963 11.108 1.983 15.345c-2.98 4.249-4.907-1.125-4.907-2.118 0-.994 5.96-10.941 21.23-10.941s23.281 8.164 23.281 8.164-.191 8.354-4.47 12.137c0 0 6.15-8.164 16.021-7.565 0 0 13.78 12.137 18.441 21.09 0 0-11.921 17.715-33.163 19.702 0 0 10.8 2.191 13.601 5.171 0 0-37.442 14.531-44.892 7.757-7.45-6.775 3.35-6.572 6.521-3.184 3.17 3.387 9.5 13.13 9.5 13.13s-30.361 8.559-36.321-6.571l1.68 11.946s-28.692-5.77-37.072-15.525c-8.38-9.755 19.931-24.286 34.462-27.865 14.53-3.579 43.032-6.165 51.603-4.381m-97.605 20.719s-14.531-28.655-44.701-31.444c0 0-4.471 9.947 1.49 15.728 0 0-10.8-21.294-47.693-11.347 0 0 6.71 17.117 11.55 16.722 4.84-.395 5.4-7.565.191-7.757-5.221-.203-27.292-.095-39.302 13.729 0 0 9.31 7.565 16.76 6.368 0 0-13.78 1.197-25.331 32.641 0 0 25.331 11.539 39.123 6.368 0 0-4.84 15.13-10.431 15.92 0 0 31.292-1.197 34.832-12.736 3.54-11.539-8.01-7.17-7.26-3.579.751 3.591 8.571 16.315 8.571 16.315s20.491 1.197 29.801-15.92c0 0 2.61 10.749-1.86 14.328 0 0 38.002-26.668 36.882-47.364-1.12-20.695-82.737 2.406-91.521 11.646m19.595-30.354s23.471 6.762 22.732 19.498m20.491 0s-4.47 17.117-24.962 21.497m128.157-66.61s-22.631 7.971-24.536 21.365m-17.937 9.42s30.552 3.986 45.822-1.592m-52.645-45.113s17.388-27.063 7.944-48.824c0 0-11.921 4.776-11.921 9.025 0 0 9.938-42.983-4.47-62.625 0 0-7.45 3.184-8.447 10.079 0 0-21.365-33.431-29.801-37.154 0 0-4.717 9.025-2.981 19.905 0 0-13.164-29.193-28.311-32.904 0 0-5.713 10.88-3.73 18.314 0 0-24.838-17.775-33.286-11.408 0 0-7.45 21.498 0 32.642 0 0-5.221-2.12-9.433.801 0 0-3.977 28.13 20.368 44.85 0 0-11.674-1.591-12.671 2.12-.998 3.71 3.977 23.089 30.305 35.298 0 0-12.167.526-12.918 2.657 0 0 16.391 29.194 25.578 33.168m49.922 20.144S240.185 68.072 235.715 52.153c-4.47-15.92 15.898-16.183 21.107-3.448 9.378 22.922 0 62.685 0 62.685m41.24-6.428s-.751 38.483-15.651 48.824m0 76.426s-18.508 21.091-16.267 39.799c0 0 16.76 2.394 20.86-2.789 0 0-16.76 10.354-16.39 44.575 0 0 10.43 1.197 16.39-7.17 0 0-16.39 16.315-2.61 46.969 0 0 11.539-8.355 11.92-17.116 0 0-5.96 20.3 13.792 42.192 0 0 6.33-2.788 8.57-12.735 0 0 11.181 19.498 27.942 27.063 0 0 16.76-13.538 15.27-42.588 0 0 8.201 5.578 16.021 7.17 0 0 10.43-19.498 2.241-44.982 0 0 9.31 7.17 13.41 4.776 0 0-5.96-42.193-25.331-50.153 0 0 11.181 1.197 13.411-1.986 0 0-11.966-36.221-34.272-39.404m-49.306-9.54s16.917 14.722 29.387 63.283c12.469 48.561 16.939 63.283 12.099 70.058-4.839 6.775-17.511 6.368-16.76-3.986.751-10.353 1.49-49.757 15.651-58.507m-14.923-45.772s-14.531 10.749-17.88 31.444c-3.35 20.696-2.241 30.654-2.241 30.654m29.443-186.689s9.691-23.353 31.291-33.563c0 0 5.96 2.394 6.711 16.781 0 0 11.181-30.977 37.251-33.371 26.082-2.394 30.552 4.776 30.552 4.776s13.041 24.729 0 20.06c-13.041-4.667 8.201-17.666 19.371-16.876 11.169.79 43.962 10.617 60.353 32.377l-7.451 17.775s20.122-7.959 26.082-6.367c5.96 1.591 35.761 41.666 38.002 64.216 0 0-22.351 28.141-53.653 28.931 0 0-3.731 11.132 2.98 19.091 0 0-66.19 8.224-51.659-6.104 14.531-14.328 2.24 23.089 6.957 31.205 0 0-42.102 9.133-59.053-8.379l-6.521 15.92s-22.642-2.909-37.251-21.893m163.917-74.032c-52.902-17.906-112.516-2.633-112.516-2.633s5.221 32.473 49.183 39.655m13.411-81.202s-23.841 11.192-26.821 39.835m-43.402-59.74s-16.212 9.324-23.662 38.494m-173.608 7.553s-36.882-38.614-71.299-21.114l5.915 11.371s-21.432-14.46-54.684-6.512c-33.251 7.948-33.991 25.184-33.991 25.184s11.584 21.665 16.256 10.414c4.672-11.252-25.13-1.077-33.252 3.232-8.133 4.309-28.815 22.287-33.251 36.639 0 0 24.39 1.424 25.129 4.297.74 2.872-36.949 12.927-42.125 50.643 0 0 12.56 14.005 33.252 19.75 0 0 16.995-2.011 18.474-8.187 0 0-.986 12.975-4.683 16.446 0 0 8.862 9.695 37.196 13.765 0 0 35.078-8.869 24.546-14.914-10.531-6.045-2.487 20.432-8.29 27.841 0 0 16.995 12.927 51.48 7.182 0 0 16.256-5.027 22.171-16.997 0 0 2.219 14.842.247 19.87 0 0 55.423-10.534 59.613-39.273 4.19-28.739 5.176 4.788 5.176 8.858 0 0 26.104-14.124 28.569-28.5m-113.513-50.081s-74.01.527-126.666 38.746m21.353-53.6s49.184 6.272 64.084 28.081m37.756 0s-3.473 19.151-29.801 45.161m-4.975-105.62s13.904-2.657 34.776 0c20.861 2.658 25.331 9.516 25.331 9.516"/></svg><svg viewBox="0 0 345 304" id="icon-orange" xmlns="http://www.w3.org/2000/svg"><path d="M177.011 26.166S197.832-.456 232.016 1.063c34.184 1.518 64.741 22.541 74.217 57.416 9.215 33.909.697 63.729-16.038 80.71-16.229 16.452-50.053 17.986-50.053 17.986m-11.522 71.222s13.086 1.105 21.074 21.338C259.913 275.62 236.202 301 236.202 301c.782-16.321-21.182-18.876-38.515-27.542-17.334-8.667-12.236-34.691-5.098-46.802 7.137-12.111 22.109-17.111 31.017-13.391 7.735 3.229 1.442 17.034-7.306 10.062-13.017-10.377-8.409-33.018 49.708-49.048C324.126 158.249 343 221.418 343 221.418s-8.494-4.418-28.212.337c-19.717 4.763-15.294 9.518-39.09 10.546-23.796 1.02-51.241-28.47-51.241-28.47m0 .007s75.666-27.481 87.119-7.002c11.453 20.478-55.948-10.301-55.948-10.301m-51.486 47.684s23.964 25.195 27.023 30.295c3.059 5.101-1.533 13.515-7.39 9.695-5.865-3.827.69-34.652.69-34.652m38.852-35.351s12.45 2.623 21.289 11.122M33.966 50.119c16.43-21.253 53.933-40.32 99.309-35.22 45.377 5.1 72.914 23.462 90.753 55.599 17.847 32.136 15.294 96.41-2.553 121.406-17.839 25.004-48.082 58.245-106.783 56.067-56.477-2.094-99.308-38.925-111.152-91.985C-6.978 108.862 17.53 71.38 33.967 50.119Zm47.639 56.435c-4.37 1.695-5.612 11.735 0 13.261 5.611 1.534 13.086-2.04 11.73-6.634-1.365-4.587-6.463-8.667-11.73-6.627Zm110.623-25.472c2.017-3.842-2.667-10.285-7.282-7.432-4.623 2.853-7.697 9.802-4.263 11.474 3.442 1.672 9.115.59 11.545-4.042ZM87.216 144.796c-1.84 3.927 3.128 10.147 7.613 7.087 4.485-3.061 7.245-10.14 3.734-11.651-3.504-1.511-9.13-.169-11.347 4.564ZM272.425 39.259c-1.71 1.35 3.503 23.216-2.101 24.82-5.604 1.602-6.202-4.687-3.503-5.492 2.698-.798 13.853 17.157 16.214 16.436 2.361-.713-.897-24.674 3.902-23.984 4.807.683 5.006 6.52 2.001 6.865-2.998.337-14.804-19.995-16.513-18.646ZM166.754 48.73c5.719 12.126-30.405 88.264-39.88 77.335-9.476-10.922 53.487-66.912 65.83-64.19 12.342 2.724 37.534 55.462 25.789 65.478-11.745 10.017-92.685 16.115-91.266 7.502 1.418-8.614 79.521-7.916 84.282 4.778 4.761 12.693 3.795 20.586-3.189 35.695-6.984 15.11-15.202 34.967-31.846 31.493-16.635-3.475-59.566-57.885-49.876-63.913 9.69-6.029 36.315 57.846 27.545 75.74-7.306 14.918-67.333 19.381-72.952-3.245-6.57-26.461 29.53-75.195 35.479-71.997 5.949 3.199-28.894 63.353-55.404 60.799-26.51-2.561-39.005-49.125-32.42-66.137 6.585-17.012 81.791-11.88 83.493-3.835 1.702 8.038-78.847-11.742-85.011-21.13-6.164-9.388 21.442-66.72 47.07-62.885 25.629 3.835 53.005 73.216 45.431 77.189-7.575 3.973-41.367-72.664-24.977-87.628 16.39-14.964 64.036-7.747 71.902 8.95Z"/></svg><svg viewBox="0 0 560 427" id="icon-rosemary" xmlns="http://www.w3.org/2000/svg"><path d="M559 19.014S442.71 41.67 306.442 125.244c-136.268 83.573-170.391 148.743-170.391 148.743M438.73 51.449s-14.824-11.609-26.708-16.361c-11.883-4.753-36.014-12.6-42.044-15.338-6.021-2.736-28.448-22.947-30.776-17.963-2.327 4.984 9.705 20.788 18.434 24.135 8.73 3.347 14.804 4.376 26.022 9.32 11.217 4.944 28.81 17.198 32.046 17.908 5.289 1.162 7.806-4.09 2.241-6.04-5.564-1.949-16.353 1.395-22.981 1.494-6.629.099-77.976-7.747-86.918-10.107-8.941-2.36-30.722 2.367-2.394 11.172 28.327 8.805 71.676 5.342 95.844 9.573l24.166 4.242m23.292-9.656c-.115.316-47.944 31.13-73.177 63.658-25.233 32.528 6.132 5.174 11.599.205 5.476-4.967 21.399-17.56 35.901-29.437 8.311-6.802 16.629-11.687 22.813-15.19m0 0c2.521-8.316 2.203-13.058 7.265-13.49 5.88-.495 5.299 4.644 2.125 7.708-1.36 1.308-4.787 3.165-9.39 5.782Zm0 0c-1.834 6.038-3.723 13.305-5.687 20.08-1.787 6.172-3.635 11.927-5.546 15.979-6.912 14.626-41.565 52.949-48.166 63.161-6.593 10.224-34.225 48.072-30.283 51.716 3.943 3.644 13.161-11.497 16.768-16.534 3.046-4.272 52.556-68.932 74.409-104.594m0 0c3.992-6.523 7.064-12.064 8.753-16.105 6.975-16.64 9.995-31.523 11.27-40.12m-20.023 56.225c-1.845 5.342-4.811 12.729-9.584 22.452-11.734 23.872-46.892 68.968-49.981 73.086-3.09 4.128-16.789 31.337 6.57 4.589 23.362-26.757 43.211-59.122 48.25-67.967 5.05-8.854 11.641-19.068 17.35-39.826 5.707-20.748 2.523-24.221 2.523-24.221m-18.945 10.13s-60.809 58.64-69.25 76.027c-8.448 17.375-15.589 31.608 7.545 4.457 23.133-27.15 37.851-45.865 42.65-50.633 4.799-4.768 15.698-17.81 15.698-17.81m-34.214-33.101c-12.759 6.223-44.538 21.554-57.772 26.458-16.761 6.211-40.703 16.6-53.107 18.648-12.404 2.047-40.566 5.675-8.908-5.428 31.651-11.114 61.135-22.365 71.485-26.574 3.639-1.478 7.628-4.057 11.445-6.54m0 0c7.018-4.568 13.407-8.801 15.834-5.199 1.286 1.906-5.674 3.639-15.834 5.198Zm0 0c-19.421 2.99-50.547 5.338-58.14 7.021-11.566 2.557-47.851 8.836-60.407 10.135-12.556 1.298-30.63 3.391-30.63 3.391s-31.757-1.636-.137-9.65c31.63-8.013 114.866-17.47 114.866-17.47l17.529-4.007.011-.008m-6.746 97.484c-7.201 15.886-19.891 44.699-32.083 76.317-18.433 47.834-13.762 39.248-25.156 65.951-11.383 26.695-8.614 4.942-6.161-2.084 2.451-7.017 8.37-28.753 13.264-42.798 2.646-7.573 11.117-28.278 20.061-49.952m30.075-47.434c.415-1.449.857-2.986 1.326-4.64 9.074-32.042 12.384-47.481 12.384-47.481s-13.683 6.554-38.066 40.992c-24.376 34.45-30.322 48.941-33.739 56.092-3.426 7.149-11.192 36.048 6.36 5.567 17.551-30.471 32.553-51.265 39.611-59.241 2.299-2.598 5.434-6.136 8.462-9.843m3.662 18.554c-7.695 26.668-7.579 21.092-20.4 60.013-13.519 41.032 4.526 8.25 7.503 1.694 2.986-6.555 15.693-40.883 22.58-68.593 5.625-22.662 10.443-47.39 12.008-55.663m-51.766 109.983.004-.02m-.004.02c-5.296 6.157-13.065 15.991-19.52 27.293-10.953 19.17-18.412 39.968-35.472 68.148-17.059 28.179-8.487 2.9-5.809-3.724 2.679-6.623 28.862-62.702 46.06-86.718 9.971-13.925 18.72-23.031 24.319-28.219m-9.578 23.22s.013-.018.004-.02m0 0c3.214-7.797 6.494-15.724 9.574-23.2m0 0 .002-.01c4.258-10.326 8.154-19.802 11.037-26.98a277.263 277.263 0 0 0 5.796-15.778m0 0c4.987-15.05 5.427-20.677 8.873-18.295 3.166 2.185-2.614 10.604-8.873 18.295Zm-25.327-15.915c-7.562.654-20.951 1.868-34.804 3.392l-.009-.002m0 0c-11.468 1.254-23.236 2.72-32.266 4.265l-.009-.002m32.275-4.263c-12.647-3.268-40.069-9.497-74.211-12.241-47.349-3.798-72.693 14.59-76.633 16.807-3.938 2.208-12.141 9.656 2.986 5.147 15.137-4.506 25.03-11.003 58.088-11.061 23.919-.039 46.709 3.602 57.495 5.611m0 0c-2.604.448-4.975.907-7.05 1.36-22.456 4.916-94.421 29.311-106.551 34.496-12.129 5.184-39.973 26.446 3.666 10.809 43.648-15.635 66.276-22.81 73.91-26.141 1.783-.768 6.353-1.818 12.284-3.037m0 0c9.341-1.931 22.04-4.295 32.409-6.698m-32.409 6.698c-18.882 11.427-55.963 33.608-80.493 46.65-34.111 18.129-19.763 21.718 6.489 9.386 19.46-9.133 76.642-46.349 106.413-62.734m0 0c11.293-2.608 19.843-5.267 18.386-7.48-.944-1.425-7.996 1.758-18.386 7.48Zm20.606 5.302c-1.433 9.028-4.387 25.458-8.593 38.012-6.118 18.253-28.374 94.167-38.281 116.888-9.906 22.721-15.501 29.742-7.205-1.626 8.295-31.368 24.745-77.237 28.527-90.509 3.789-13.259 9.581-30.208 9.581-30.208s-61.748 95.915-65.19 101.683c-3.442 5.768-32.138 36.478-3.829-9.47 28.301-45.959 44.937-72.163 57.763-92.34a501.858 501.858 0 0 0 14.06-23.554m-75.367 59.477c-2.786 21.076-10.587 77.47-17.927 104.602-9.119 33.751-21.284 69.921-22.724 73.727-1.45 3.805-18.367 31.322-6.046-4.119 12.32-35.441 21.949-58.41 29.147-97.068 4.745-25.532 8.052-53.635 9.755-69.789m-7.023 6.928c-6.771-2.284-24.211-7.079-48.031-5.557-30.949 1.963-72.328 8.469-95.617 12.855-23.29 4.385-26.226 13.715 5.201 8.06 31.426-5.646 64.543-8.849 79.037-10.404 14.492-1.545 31.116-1.243 38.603-.93 4.823.197 10.841 1.535 14.514 2.457-3.209 13.514-34.053 119.509-48.121 146.986-14.078 27.475-10.205 9.409-8.051 2.315 2.144-7.085 11.349-35.318 22.699-64.776 11.353-29.467 20.332-62.565 20.809-66.248.237-1.81-.094-2.475-1.625-2.313-1.564.144-4.384 1.154-9.15 2.636a877.24 877.24 0 0 0-17.867 5.806m0 0c-10.496 3.524-23.261 8.006-34.867 12.605-19.952 7.893-45.034 17.725-73.948 38.062-28.914 20.337-17.608 4.29-4.58-6.543S42.48 280.22 69.54 268.526c27.062-11.694 63.016-23.763 75.249-26.512 6.116-1.375 12.557-2.147 17.498-2.586m-34.355 16.883c-8.09 7.712-21.551 20.166-31.819 27.748-15.711 11.605-40.055 26.781-56.557 40.619C23.062 338.519 7.2 361.108 5.13 363.395c-2.062 2.289-10.836 22.687 6.43 5.241 17.278-17.454 15.71-17.466 35.003-35.49 13.223-12.363 44.03-35.255 68.984-52.53m28.38-18.687c-6.717 4.004-16.929 10.75-28.38 18.687m0 0c-8.343 9.156-18.731 21.848-27.432 36.339-17.747 29.578-34.725 62.145-48.63 93.232-13.905 31.086 5.895 7.74 9.011 2.033 3.107-5.709 13.764-30.425 33.618-67.272 11.06-20.504 28.202-37.988 39.857-50.187m0 0c2.736-10.556 5.081-21.365 11.575-17.922 3.511 1.859-2.299 8.21-11.575 17.922Zm0 0c-.602 2.319-1.219 4.623-1.903 6.757-3.808 11.888-10.573 31.704-18.219 47.541-7.645 15.838-17.1 30.583-30.55 53.716-13.46 23.131.288 10.399 4.484 5.485 4.203-4.902 13.645-15.167 32.336-55.373 18.691-40.207 31.832-78.02 31.832-78.02"/></svg><svg viewBox="0 0 357 303" id="icon-tomato" xmlns="http://www.w3.org/2000/svg"><path d="M256.44 52.29s-2.366-3.516 12.465-20.463c14.832-16.946 44.975-1.008 44.975-1.008s-22.562-18.503-45.001-19.787c-22.439-1.284-38.36 27.53-40.966 35.497-2.61 7.957 3.866 6.224 11.49.11 7.624-6.112-3.54-44.398-3.54-44.398s-13.26 17.306-27.871 40.917C193.38 66.77 185.184 70.21 179.039 76.254c-6.135 6.04-19.185 10.907-26.206 8.83-7.02-2.077-23.891-22.038-50.889-24.002-26.999-1.964-49.695 8.33-49.695 8.33s24.392.635 36.571 7.153c12.18 6.518 9.532 18.032 16.812 19.562 7.28 1.53 15.949-13.1 3.761-12.328-12.189.773-46.106-.837-57.033 13.906C41.432 112.45 18.895 132.88.624 133.726c0 0 41.632 1.555 59.74-14.33 18.109-15.885 45.546-7.55 45.546-7.55l38.254-4.325s17.447-3.692 13.892-28.61c-3.554-24.917-1.287-45.157 4.001-46.05l16.166 2.519s-12.257 10.878-1.78 34.241c10.478 23.364 13.72 20.844 13.72 20.844m-16.297 10.562c14.746-6.087 40.501-36.657 69.166-46.326 37.922-12.788 88.335 6.313 108.148 71.563 18.245 60.088-18.588 132.756-101.211 160.696-95.1 32.154-161.084 11.341-194.381-61.534-25.718-56.312.053-97.4 28.1-108.618 25.934-10.376 62.419-4.321 90.178-15.781Zm-60.731 28.869c27.353-10.544 50.219-2.097 62.129 19.786 7.358 13.523 24.414 59.936 29.536 75.47 5.122 15.534 8.677 41.799-24.505 50.754-30.247 8.155-52.235.6-72.083-20.864-19.695-21.295-39.577-58.46-32.02-86.682 7.556-28.222 21.614-32.55 36.943-38.464Zm133.458-47.814c15.17-5.112 46.523-9.726 59.433 13.806 12.901 23.535 27.251 68.723 17.968 96.189-9.28 27.475-35.475 61.598-71.39 47.954-27.171-10.321-51.228-108.242-44.646-125.045 9.441-24.095 38.635-32.904 38.635-32.904Zm-108.917 59.91c-3.964 2.104-7.187 6.954.412 15.404 8.585 9.536 16.536 9.483 14.732-.981-2.147-12.523-9.479-17.43-15.144-14.423Zm96.125-33.987c-4.515.613-9.427 4.035-5.682 14.483 4.228 11.793 11.651 14.432 14.103 4.093 2.927-12.397-1.965-19.453-8.421-18.576Zm43.865-5.686c-4.352-1.279-10.383-.195-11.945 10.713-1.765 12.315 3.658 17.705 10.74 9.409 8.495-9.96 7.428-18.296 1.205-20.122Zm28.957 46.556c.128-4.236-2.657-9.318-14.392-7.689-13.249 1.829-17.335 8.157-6.778 12.177 12.656 4.82 20.992 1.571 21.17-4.488Zm-5.617 42.413c2.495-3.547 2.982-9.231-7.935-13.539-12.321-4.872-19.367-1.46-12.641 7.095 8.068 10.249 17.01 11.519 20.576 6.444ZM276.4 227.271c3.864-2.25 6.866-7.225-1.103-15.381-9.003-9.205-16.939-8.837-14.674 1.54 2.707 12.445 10.252 17.07 15.777 13.841Zm-173.138-64.13c-3.261 2.966-5.056 8.413 4.593 14.815 10.898 7.229 18.572 5.312 13.988-4.394-5.483-11.619-13.913-14.659-18.581-10.421Zm-3.588 51.722c.842 4.159 4.734 8.578 15.829 4.68 12.522-4.4 15.07-11.387 3.833-13.241-13.477-2.218-20.875 2.601-19.662 8.561Zm29.572 36.386c3.445 2.783 9.443 4.006 15.542-5.426 6.889-10.657 4.214-17.602-5.841-12.587-12.035 6.002-14.623 14.042-9.701 18.013Zm38.397 12.838c4.063 1.915 10.207 1.752 13.652-8.773 3.888-11.892-.523-18.022-8.966-10.895-10.117 8.54-10.516 16.92-4.686 19.668Z"/></svg><svg viewBox="0 0 48 28" id="icon_arrow-right" xmlns="http://www.w3.org/2000/svg"><g clip-path="url(#ka)"><path d="M34.052.982 31.324 3.77l8.298 8.293H.75v3.874h38.872l-8.296 8.295 2.726 2.786L47.066 14 34.052.982Z"/></g><defs><clipPath id="ka"><path d="M0 0h48v28H0z"/></clipPath></defs></svg><svg viewBox="0 0 48 28" id="vector" xmlns="http://www.w3.org/2000/svg"><path d="M34.052.982 31.324 3.77l8.298 8.293H.75v3.874h38.872l-8.296 8.295 2.726 2.786L47.066 14 34.052.982Z"/></svg></svg>